<svg xmlns="http://www.w3.org/2000/svg" viewBox="0 0 520 170" role="img" aria-labelledby="t d"><title id="t">Riddhi Siddhi Enterprises</title><desc id="d">One Goal, One Passion, Your Home</desc><defs><linearGradient id="g" x1="0" y1="1" x2="1" y2="0"><stop offset="0" stop-color="#27156f"/><stop offset=".5" stop-color="#c92c28"/><stop offset="1" stop-color="#ee8a16"/></linearGradient></defs><path d="M18 73 L110 18 L202 73" fill="none" stroke="url(#g)" stroke-width="12" stroke-linecap="round" stroke-linejoin="round"/><path d="M58 68 L110 30 L166 68" fill="none" stroke="url(#g)" stroke-width="7" stroke-linecap="round"/><path d="M95 88 C95 72 108 67 126 70 C145 73 152 84 146 96 C140 108 121 109 111 111 C102 113 103 121 116 122 C128 123 141 118 148 113 L148 132 C138 139 118 143 103 138 C86 132 79 117 86 104 C91 94 101 91 113 89 C120 88 122 83 114 82 C106 81 100 84 95 88 Z" fill="url(#g)"/><path d="M154 83 C167 76 181 76 193 81 L193 98 C184 91 174 89 169 91 C164 93 165 98 173 101 C187 106 197 112 196 124 C195 139 179 143 164 139 C156 137 150 134 146 130 L154 113 C161 119 169 122 175 121 C181 120 181 116 175 114 C164 110 153 105 151 95 C149 90 150 86 154 83 Z" fill="url(#g)"/><rect x="103" y="48" width="10" height="10" rx="2" fill="#27156f"/><rect x="118" y="48" width="10" height="10" rx="2" fill="#27156f"/><rect x="103" y="62" width="10" height="10" rx="2" fill="#27156f"/><rect x="118" y="62" width="10" height="10" rx="2" fill="#27156f"/><text x="220" y="80" font-family="Arial,Helvetica,sans-serif" font-size="32" font-weight="800" fill="#111">RIDDHI SIDDHI</text><text x="220" y="116" font-family="Arial,Helvetica,sans-serif" font-size="30" font-weight="700" fill="#111">Enterprises</text><text x="220" y="148" font-family="Arial,Helvetica,sans-serif" font-size="15" font-weight="600" fill="#222">One Goal, One Passion, Your Home</text></svg>